<svg width="334" height="42" viewBox="0 0 334 42" fill="none" xmlns="http://www.w3.org/2000/svg">
<path fill-rule="evenodd" clip-rule="evenodd" d="M115.463 14.8088C117.368 13.0104 120.408 11.7579 123.074 11.7579C129.047 11.7579 132.912 15.8151 132.912 22.0882C132.912 28.6289 128.566 33.0287 122.1 33.0287C118.92 33.0287 116.405 32.1937 114.414 30.4702L114.285 30.3631V1.0957H115.463V14.8088ZM115.463 29.8279C118.032 31.6049 120.28 31.8511 122.143 31.8511C127.795 31.8511 131.745 27.8903 131.734 22.2166C131.734 16.4895 128.416 12.9354 123.074 12.9354C120.002 12.9354 116.769 14.7553 115.463 16.4788V29.8279ZM135.706 22.386C135.706 15.8238 139.56 11.7559 145.769 11.7559C151.143 11.7559 154.9 15.5348 154.9 20.9301C154.9 21.1228 154.89 21.2941 154.879 21.4654L154.877 21.4922L154.877 21.4924C154.867 21.6429 154.858 21.7855 154.858 21.9471V22.3111H136.895C137.034 28.2095 140.652 31.8492 146.39 31.8492C148.959 31.8492 151.507 30.768 153.027 29.0231L153.284 28.7234L154.055 29.4941L153.851 29.751C152.224 31.7636 149.355 33.0161 146.379 33.0161C140.095 33.0161 135.706 28.6484 135.706 22.386ZM145.587 12.9335C140.663 12.9335 137.366 16.0701 136.905 21.1442V21.1549H153.723C153.701 18.6928 152.931 16.6374 151.496 15.1815C150.051 13.7043 148.006 12.9335 145.587 12.9335ZM165.208 11.7559C163.035 11.7559 161.205 12.3126 159.107 13.6186L158.796 13.8113L159.396 14.7748L159.706 14.5928C161.547 13.4902 162.885 12.9335 165.112 12.9335C170.871 12.9335 171.332 16.0808 171.353 22.1077C169.234 20.8552 166.718 20.6518 165.337 20.6518C160.541 20.6518 157.437 23.1246 157.437 26.9677C157.437 30.479 160.07 32.8448 163.977 32.8448C167.05 32.8448 169.48 31.785 171.364 29.6119V32.6735H172.541V19.881C172.541 14.3358 170.208 11.7559 165.208 11.7559ZM165.262 21.8293C167.628 21.8293 169.683 22.4074 171.375 23.5528V27.7385C169.951 29.6975 167.949 31.6779 163.945 31.6779C160.766 31.6779 158.625 29.7724 158.625 26.9356C158.614 23.403 161.954 21.8293 165.262 21.8293ZM186.232 31.8509C189.658 31.8509 192.902 29.5386 194.101 27.9115V12.1109H195.278V32.6645H194.101V29.5707C192.249 31.3799 189.144 33.0177 186.136 33.0177C180.452 33.0177 177.797 30.0203 177.797 23.5759V12.1109H178.975V23.4475C178.975 29.2603 181.212 31.8509 186.232 31.8509ZM209.803 30.6936C209.15 31.1861 207.962 31.6785 206.763 31.6785C202.974 31.6785 201.357 29.4947 201.357 24.3777V13.2873H210.392V12.1098H201.357V6.60742H200.18V24.7738C200.18 30.2119 202.331 32.8453 206.753 32.8453C208.08 32.8453 209.472 32.4064 210.489 31.6785L210.778 31.4751L210.103 30.4581L209.803 30.6936ZM229.825 12.1113H231.109L222.738 32.4508C219.966 39.2056 218.039 41.4858 215.084 41.4858C214.163 41.4858 213.189 41.261 212.119 40.79L211.776 40.6401L212.258 39.5803L212.59 39.7195C213.607 40.1584 214.345 40.3511 214.998 40.3511C217.332 40.3511 219.066 38.3492 221.186 33.2216L221.561 32.3223L211.188 12.1113H212.494L222.149 30.9842L229.825 12.1113Z" fill="#221D1E"/>
<path d="M115.463 14.8088H115.295V15.1968L115.578 14.9305L115.463 14.8088ZM114.414 30.4702L114.523 30.3437L114.521 30.3417L114.414 30.4702ZM114.285 30.3631H114.118V30.4415L114.178 30.4917L114.285 30.3631ZM114.285 1.0957V0.928398H114.118V1.0957H114.285ZM115.463 1.0957H115.63V0.928398H115.463V1.0957ZM115.463 29.8279H115.295V29.9156L115.368 29.9655L115.463 29.8279ZM131.734 22.2166H131.567V22.217L131.734 22.2166ZM115.463 16.4788L115.329 16.3777L115.295 16.4225V16.4788H115.463ZM154.879 21.4654L155.046 21.4765L155.046 21.4758L154.879 21.4654ZM154.877 21.4922L154.71 21.4811L154.71 21.4821L154.877 21.4922ZM154.877 21.4924L155.044 21.5036L155.044 21.5026L154.877 21.4924ZM154.858 22.3111V22.4784H155.025V22.3111H154.858ZM136.895 22.3111V22.1438H136.723L136.727 22.315L136.895 22.3111ZM153.027 29.0231L153.153 29.133L153.154 29.132L153.027 29.0231ZM153.284 28.7234L153.402 28.605L153.274 28.4773L153.157 28.6145L153.284 28.7234ZM154.055 29.4941L154.186 29.598L154.278 29.4812L154.173 29.3758L154.055 29.4941ZM153.851 29.751L153.981 29.8562L153.982 29.8549L153.851 29.751ZM136.905 21.1442L136.739 21.1291L136.738 21.1366V21.1442H136.905ZM136.905 21.1549H136.738V21.3222H136.905V21.1549ZM153.723 21.1549V21.3222H153.892L153.89 21.1535L153.723 21.1549ZM151.496 15.1815L151.377 15.2985L151.377 15.299L151.496 15.1815ZM159.107 13.6186L159.195 13.7608L159.195 13.7607L159.107 13.6186ZM158.796 13.8113L158.708 13.6692L158.566 13.7575L158.654 13.8997L158.796 13.8113ZM159.396 14.7748L159.254 14.8631L159.34 15.0015L159.48 14.9191L159.396 14.7748ZM159.706 14.5928L159.791 14.7371L159.792 14.7363L159.706 14.5928ZM171.353 22.1077L171.268 22.2517L171.521 22.4015L171.52 22.1071L171.353 22.1077ZM171.364 29.6119H171.531V29.1635L171.237 29.5023L171.364 29.6119ZM171.364 32.6735H171.197V32.8408H171.364V32.6735ZM172.541 32.6735V32.8408H172.709V32.6735H172.541ZM171.375 23.5528H171.542V23.4641L171.468 23.4143L171.375 23.5528ZM171.375 27.7385L171.51 27.8369L171.542 27.7929V27.7385H171.375ZM158.625 26.9356H158.792V26.9351L158.625 26.9356ZM194.101 27.9115L194.235 28.0107L194.268 27.9664V27.9115H194.101ZM194.101 12.1109V11.9436H193.933V12.1109H194.101ZM195.278 12.1109H195.446V11.9436H195.278V12.1109ZM195.278 32.6645V32.8318H195.446V32.6645H195.278ZM194.101 32.6645H193.933V32.8318H194.101V32.6645ZM194.101 29.5707H194.268V29.1734L193.984 29.4511L194.101 29.5707ZM177.797 12.1109V11.9436H177.63V12.1109H177.797ZM178.975 12.1109H179.142V11.9436H178.975V12.1109ZM209.803 30.6936L209.904 30.8272L209.907 30.8252L209.803 30.6936ZM201.357 13.2873V13.12H201.19V13.2873H201.357ZM210.392 13.2873V13.4546H210.56V13.2873H210.392ZM210.392 12.1098H210.56V11.9425H210.392V12.1098ZM201.357 12.1098H201.19V12.2771H201.357V12.1098ZM201.357 6.60742H201.525V6.44012H201.357V6.60742ZM200.18 6.60742V6.44012H200.012V6.60742H200.18ZM210.489 31.6785L210.392 31.5417L210.391 31.5425L210.489 31.6785ZM210.778 31.4751L210.874 31.6119L211.007 31.5183L210.917 31.3826L210.778 31.4751ZM210.103 30.4581L210.243 30.3657L210.142 30.2145L210 30.3266L210.103 30.4581ZM231.109 12.1113L231.264 12.175L231.359 11.944H231.109V12.1113ZM229.825 12.1113V11.944H229.712L229.67 12.0483L229.825 12.1113ZM222.738 32.4508L222.583 32.3871L222.583 32.3873L222.738 32.4508ZM212.119 40.79L212.186 40.6368L212.186 40.6367L212.119 40.79ZM211.776 40.6401L211.624 40.5709L211.554 40.7254L211.709 40.7934L211.776 40.6401ZM212.258 39.5803L212.323 39.426L212.173 39.3632L212.106 39.5111L212.258 39.5803ZM212.59 39.7195L212.656 39.5659L212.655 39.5652L212.59 39.7195ZM221.186 33.2216L221.032 33.1572L221.031 33.1576L221.186 33.2216ZM221.561 32.3223L221.715 32.3867L221.745 32.315L221.709 32.2459L221.561 32.3223ZM211.188 12.1113V11.944H210.914L211.039 12.1877L211.188 12.1113ZM212.494 12.1113L212.642 12.0351L212.596 11.944H212.494V12.1113ZM222.149 30.9842L222 31.0604L222.167 31.3855L222.304 31.0472L222.149 30.9842ZM123.074 11.5906C120.364 11.5906 117.283 12.8603 115.348 14.6871L115.578 14.9305C117.453 13.1604 120.452 11.9252 123.074 11.9252V11.5906ZM133.079 22.0882C133.079 18.9172 132.102 16.2905 130.354 14.4552C128.605 12.6192 126.1 11.5906 123.074 11.5906V11.9252C126.021 11.9252 128.435 12.9252 130.112 14.686C131.79 16.4476 132.745 18.986 132.745 22.0882H133.079ZM122.1 33.196C125.372 33.196 128.119 32.082 130.05 30.1288C131.979 28.1758 133.079 25.3963 133.079 22.0882H132.745C132.745 25.3208 131.671 28.0116 129.811 29.8936C127.952 31.7755 125.294 32.8614 122.1 32.8614V33.196ZM114.304 30.5967C116.332 32.3518 118.889 33.196 122.1 33.196V32.8614C118.952 32.8614 116.478 32.0356 114.523 30.3437L114.304 30.5967ZM114.178 30.4917L114.307 30.5987L114.521 30.3417L114.392 30.2346L114.178 30.4917ZM114.118 1.0957V30.3631H114.452V1.0957H114.118ZM115.463 0.928398H114.285V1.26301H115.463V0.928398ZM115.63 14.8088V1.0957H115.295V14.8088H115.63ZM122.143 31.6838C120.3 31.6838 118.09 31.4415 115.558 29.6903L115.368 29.9655C117.974 31.7684 120.26 32.0184 122.143 32.0184V31.6838ZM131.567 22.217C131.572 25.0139 130.602 27.3785 128.944 29.0434C127.285 30.7084 124.929 31.6838 122.143 31.6838V32.0184C125.009 32.0184 127.454 31.0135 129.181 29.2796C130.908 27.5457 131.907 25.0931 131.902 22.2163L131.567 22.217ZM123.074 13.1027C125.706 13.1027 127.824 13.9773 129.285 15.5425C130.747 17.109 131.567 19.3849 131.567 22.2166H131.902C131.902 19.3212 131.062 16.9565 129.53 15.3142C127.996 13.6705 125.783 12.7681 123.074 12.7681V13.1027ZM115.596 16.5798C116.229 15.7444 117.341 14.8733 118.68 14.2107C120.018 13.549 121.569 13.1027 123.074 13.1027V12.7681C121.506 12.7681 119.905 13.2318 118.532 13.9108C117.16 14.5891 116.002 15.4897 115.329 16.3777L115.596 16.5798ZM115.63 29.8279V16.4788H115.295V29.8279H115.63ZM145.769 11.5886C142.627 11.5886 140.064 12.619 138.288 14.4951C136.512 16.3702 135.539 19.0725 135.539 22.386H135.874C135.874 19.1373 136.827 16.5246 138.531 14.7252C140.233 12.9269 142.702 11.9233 145.769 11.9233V11.5886ZM155.068 20.9301C155.068 18.1927 154.114 15.8553 152.468 14.2018C150.823 12.5482 148.496 11.5886 145.769 11.5886V11.9233C148.416 11.9233 150.654 12.8531 152.231 14.4378C153.808 16.0226 154.733 18.2723 154.733 20.9301H155.068ZM155.046 21.4758C155.057 21.3049 155.068 21.1287 155.068 20.9301H154.733C154.733 21.1169 154.723 21.2832 154.712 21.4549L155.046 21.4758ZM155.044 21.5034L155.046 21.4765L154.712 21.4542L154.71 21.4811L155.044 21.5034ZM155.044 21.5026L155.044 21.5024L154.71 21.4821L154.71 21.4823L155.044 21.5026ZM155.025 21.9471C155.025 21.7918 155.034 21.6546 155.044 21.5036L154.71 21.4813C154.7 21.6313 154.69 21.7791 154.69 21.9471H155.025ZM155.025 22.3111V21.9471H154.69V22.3111H155.025ZM136.895 22.4784H154.858V22.1438H136.895V22.4784ZM146.39 31.6819C143.557 31.6819 141.264 30.7843 139.661 29.174C138.058 27.5633 137.131 25.2229 137.062 22.3071L136.727 22.315C136.798 25.2977 137.749 27.7264 139.424 29.4101C141.1 31.0943 143.485 32.0165 146.39 32.0165V31.6819ZM152.901 28.9132C151.416 30.6172 148.917 31.6819 146.39 31.6819V32.0165C149.001 32.0165 151.597 30.9188 153.153 29.133L152.901 28.9132ZM153.157 28.6145L152.9 28.9142L153.154 29.132L153.411 28.8322L153.157 28.6145ZM154.173 29.3758L153.402 28.605L153.166 28.8417L153.936 29.6124L154.173 29.3758ZM153.982 29.8549L154.186 29.598L153.923 29.3903L153.72 29.6472L153.982 29.8549ZM146.379 33.1834C149.397 33.1834 152.317 31.9143 153.981 29.8562L153.721 29.6458C152.131 31.6129 149.313 32.8487 146.379 32.8487V33.1834ZM135.539 22.386C135.539 25.5574 136.651 28.259 138.568 30.168C140.485 32.077 143.198 33.1834 146.379 33.1834V32.8487C143.277 32.8487 140.653 31.7713 138.804 29.9309C136.956 28.0905 135.874 25.477 135.874 22.386H135.539ZM137.072 21.1593C137.299 18.6552 138.224 16.6431 139.687 15.2575C141.149 13.8725 143.162 13.1008 145.587 13.1008V12.7662C143.088 12.7662 140.99 13.5628 139.457 15.0146C137.925 16.4658 136.972 18.5591 136.739 21.1291L137.072 21.1593ZM137.073 21.1549V21.1442H136.738V21.1549H137.073ZM153.723 20.9876H136.905V21.3222H153.723V20.9876ZM151.377 15.299C152.775 16.718 153.534 18.7286 153.555 21.1564L153.89 21.1535C153.868 18.6569 153.086 16.5568 151.615 15.0641L151.377 15.299ZM145.587 13.1008C147.97 13.1008 149.969 13.8593 151.377 15.2985L151.616 15.0645C150.133 13.5492 148.042 12.7662 145.587 12.7662V13.1008ZM159.195 13.7607C161.27 12.4689 163.071 11.9233 165.208 11.9233V11.5886C163 11.5886 161.139 12.1563 159.018 13.4766L159.195 13.7607ZM158.884 13.9535L159.195 13.7608L159.018 13.4765L158.708 13.6692L158.884 13.9535ZM159.538 14.6864L158.938 13.7229L158.654 13.8997L159.254 14.8631L159.538 14.6864ZM159.621 14.4484L159.311 14.6304L159.48 14.9191L159.791 14.7371L159.621 14.4484ZM165.112 12.7662C162.845 12.7662 161.477 13.3372 159.62 14.4492L159.792 14.7363C161.618 13.6431 162.926 13.1008 165.112 13.1008V12.7662ZM171.52 22.1071C171.515 20.5998 171.482 19.2647 171.345 18.1118C171.208 16.9594 170.965 15.9772 170.531 15.1806C170.096 14.3796 169.471 13.7719 168.583 13.3672C167.7 12.9644 166.565 12.7662 165.112 12.7662V13.1008C166.539 13.1008 167.621 13.296 168.445 13.6716C169.264 14.0454 169.835 14.6012 170.237 15.3404C170.642 16.084 170.878 17.0187 171.013 18.1514C171.148 19.2837 171.18 20.6021 171.186 22.1083L171.52 22.1071ZM165.337 20.8191C166.708 20.8191 169.187 21.022 171.268 22.2517L171.438 21.9636C169.28 20.6883 166.728 20.4845 165.337 20.4845V20.8191ZM157.604 26.9677C157.604 25.0956 158.358 23.5653 159.693 22.4993C161.031 21.4304 162.966 20.8191 165.337 20.8191V20.4845C162.912 20.4845 160.897 21.1096 159.484 22.2379C158.067 23.3691 157.269 24.9968 157.269 26.9677H157.604ZM163.977 32.6775C162.057 32.6775 160.464 32.0964 159.354 31.0985C158.244 30.102 157.604 28.6791 157.604 26.9677H157.269C157.269 28.7676 157.946 30.2832 159.13 31.3474C160.313 32.4102 161.99 33.0121 163.977 33.0121V32.6775ZM171.237 29.5023C169.388 31.6358 167.005 32.6775 163.977 32.6775V33.0121C167.094 33.0121 169.572 31.9341 171.49 29.7215L171.237 29.5023ZM171.531 32.6735V29.6119H171.197V32.6735H171.531ZM172.541 32.5062H171.364V32.8408H172.541V32.5062ZM172.374 19.881V32.6735H172.709V19.881H172.374ZM165.208 11.9233C167.681 11.9233 169.46 12.5607 170.625 13.8512C171.794 15.1452 172.374 17.1275 172.374 19.881H172.709C172.709 17.0894 172.122 15.0091 170.874 13.6269C169.622 12.2411 167.735 11.5886 165.208 11.5886V11.9233ZM171.468 23.4143C169.745 22.2472 167.656 21.662 165.262 21.662V21.9966C167.6 21.9966 169.621 22.5676 171.281 23.6914L171.468 23.4143ZM171.542 27.7385V23.5528H171.207V27.7385H171.542ZM163.945 31.8452C165.977 31.8452 167.509 31.3422 168.716 30.5845C169.921 29.8283 170.792 28.8242 171.51 27.8369L171.239 27.6401C170.533 28.6118 169.691 29.5774 168.538 30.3011C167.388 31.0235 165.917 31.5106 163.945 31.5106V31.8452ZM158.458 26.9356C158.458 28.3987 159.011 29.6308 159.982 30.4955C160.95 31.3587 162.323 31.8452 163.945 31.8452V31.5106C162.389 31.5106 161.101 31.0444 160.204 30.2457C159.309 29.4484 158.792 28.3094 158.792 26.9356H158.458ZM165.262 21.662C163.585 21.662 161.888 22.0604 160.606 22.9187C159.318 23.7813 158.452 25.1077 158.458 26.9361L158.792 26.9351C158.787 25.2309 159.586 24.0041 160.792 23.1968C162.004 22.3851 163.631 21.9966 165.262 21.9966V21.662ZM193.966 27.8122C193.383 28.603 192.292 29.5732 190.92 30.3456C189.548 31.1173 187.909 31.6836 186.232 31.6836V32.0182C187.982 32.0182 189.677 31.4284 191.084 30.6372C192.489 29.8466 193.619 28.8471 194.235 28.0107L193.966 27.8122ZM193.933 12.1109V27.9115H194.268V12.1109H193.933ZM195.278 11.9436H194.101V12.2782H195.278V11.9436ZM195.446 32.6645V12.1109H195.111V32.6645H195.446ZM194.101 32.8318H195.278V32.4972H194.101V32.8318ZM193.933 29.5707V32.6645H194.268V29.5707H193.933ZM186.136 33.185C189.198 33.185 192.342 31.5223 194.218 29.6904L193.984 29.4511C192.155 31.2374 189.091 32.8504 186.136 32.8504V33.185ZM177.63 23.5759C177.63 26.8165 178.296 29.2254 179.71 30.8243C181.127 32.4276 183.266 33.185 186.136 33.185V32.8504C183.322 32.8504 181.292 32.1092 179.96 30.6027C178.625 29.0918 177.964 26.7798 177.964 23.5759H177.63ZM177.63 12.1109V23.5759H177.964V12.1109H177.63ZM178.975 11.9436H177.797V12.2782H178.975V11.9436ZM179.142 23.4475V12.1109H178.807V23.4475H179.142ZM186.232 31.6836C183.75 31.6836 181.991 31.0436 180.847 29.7196C179.699 28.3901 179.142 26.3379 179.142 23.4475H178.807C178.807 26.3698 179.369 28.5194 180.594 29.9384C181.825 31.3629 183.695 32.0182 186.232 32.0182V31.6836ZM206.763 31.8458C208.002 31.8458 209.225 31.3397 209.904 30.8272L209.703 30.5601C209.076 31.0325 207.923 31.5112 206.763 31.5112V31.8458ZM201.19 24.3777C201.19 26.9467 201.594 28.8169 202.505 30.0465C203.424 31.2882 204.835 31.8458 206.763 31.8458V31.5112C204.902 31.5112 203.61 30.9769 202.774 29.8474C201.928 28.7059 201.525 26.9257 201.525 24.3777H201.19ZM201.19 13.2873V24.3777H201.525V13.2873H201.19ZM210.392 13.12H201.357V13.4546H210.392V13.12ZM210.225 12.1098V13.2873H210.56V12.1098H210.225ZM201.357 12.2771H210.392V11.9425H201.357V12.2771ZM201.19 6.60742V12.1098H201.525V6.60742H201.19ZM200.18 6.77473H201.357V6.44012H200.18V6.77473ZM200.347 24.7738V6.60742H200.012V24.7738H200.347ZM206.753 32.678C204.576 32.678 202.988 32.0315 201.938 30.7432C200.882 29.448 200.347 27.4755 200.347 24.7738H200.012C200.012 27.5102 200.553 29.5735 201.678 30.9546C202.81 32.3425 204.508 33.0126 206.753 33.0126V32.678ZM210.391 31.5425C209.404 32.2491 208.047 32.678 206.753 32.678V33.0126C208.113 33.0126 209.539 32.5638 210.586 31.8145L210.391 31.5425ZM210.681 31.3383L210.392 31.5417L210.585 31.8153L210.874 31.6119L210.681 31.3383ZM209.964 30.5506L210.638 31.5676L210.917 31.3826L210.243 30.3657L209.964 30.5506ZM209.907 30.8252L210.207 30.5897L210 30.3266L209.7 30.5621L209.907 30.8252ZM231.109 11.944H229.825V12.2786H231.109V11.944ZM222.893 32.5145L231.264 12.175L230.955 12.0477L222.583 32.3871L222.893 32.5145ZM215.084 41.6531C216.618 41.6531 217.882 41.0558 219.107 39.6095C220.323 38.1735 221.506 35.8934 222.893 32.5143L222.583 32.3873C221.198 35.763 220.031 38.0004 218.852 39.3933C217.681 40.7757 216.505 41.3185 215.084 41.3185V41.6531ZM212.051 40.9431C213.138 41.4213 214.135 41.6531 215.084 41.6531V41.3185C214.191 41.3185 213.24 41.1007 212.186 40.6368L212.051 40.9431ZM211.709 40.7934L212.052 40.9433L212.186 40.6367L211.843 40.4868L211.709 40.7934ZM212.106 39.5111L211.624 40.5709L211.929 40.7094L212.41 39.6496L212.106 39.5111ZM212.655 39.5652L212.323 39.426L212.193 39.7346L212.525 39.8738L212.655 39.5652ZM214.998 40.1838C214.379 40.1838 213.665 40.0011 212.656 39.5659L212.524 39.8731C213.549 40.3157 214.312 40.5184 214.998 40.5184V40.1838ZM221.031 33.1576C219.973 35.7176 219.018 37.4793 218.046 38.5996C217.08 39.713 216.106 40.1838 214.998 40.1838V40.5184C216.224 40.5184 217.284 39.9883 218.299 38.8188C219.307 37.6563 220.279 35.8532 221.341 33.2855L221.031 33.1576ZM221.406 32.258L221.032 33.1572L221.34 33.2859L221.715 32.3867L221.406 32.258ZM211.039 12.1877L221.412 32.3987L221.709 32.2459L211.336 12.0349L211.039 12.1877ZM212.494 11.944H211.188V12.2786H212.494V11.944ZM222.298 30.908L212.642 12.0351L212.345 12.1875L222 31.0604L222.298 30.908ZM229.67 12.0483L221.994 30.9212L222.304 31.0472L229.98 12.1744L229.67 12.0483Z" fill="#221D1E"/>
<path d="M250.069 21.7466C247.275 20.8367 244.642 19.9803 244.642 16.8116C244.642 14.6064 246.74 12.9471 249.513 12.9471C251.504 12.9471 253.206 13.5787 254.319 14.7241L254.598 15.0131L255.379 14.1139L255.165 13.8784C254.052 12.6152 251.814 11.7695 249.609 11.7695C245.937 11.7695 243.475 13.8142 243.475 16.8544C243.475 20.8581 246.762 21.9286 249.652 22.8706C252.435 23.7698 254.844 24.5513 254.844 27.4309C254.844 30.4926 252.039 31.8735 249.266 31.8735C247.457 31.8735 244.984 31.0385 243.968 29.6469L243.764 29.3578L242.769 30.0215L242.972 30.3213C244.021 31.927 247.158 33.0403 249.309 33.0403C253.388 33.0403 256.021 30.8244 256.021 27.3881C256 23.6735 252.981 22.6886 250.069 21.7466Z" fill="#221D1E" stroke="#221D1E" stroke-width="0.334611" stroke-miterlimit="10"/>
<path d="M267.612 30.6522C266.959 31.1446 265.76 31.637 264.572 31.637C262.238 31.637 261.371 30.3096 261.371 26.7556V1.0957H260.193V27.4193C260.193 31.1018 261.585 32.8039 264.572 32.8039C265.899 32.8039 267.291 32.365 268.308 31.637L268.597 31.4336L267.922 30.4274L267.612 30.6522Z" fill="#221D1E" stroke="#221D1E" stroke-width="0.334611" stroke-miterlimit="10"/>
<path d="M279.065 11.7695C272.856 11.7695 269.002 15.8481 269.002 22.3996C269.002 28.662 273.391 33.0296 279.675 33.0296C282.651 33.0296 285.52 31.7772 287.147 29.7646L287.35 29.5077L286.58 28.7369L286.323 29.0367C284.803 30.7816 282.255 31.8628 279.686 31.8628C273.937 31.8628 270.329 28.2231 270.19 22.3246H288.164V21.9607C288.164 21.7894 288.175 21.6288 288.185 21.479C288.196 21.3077 288.207 21.1364 288.207 20.9437C288.196 15.5377 284.439 11.7695 279.065 11.7695ZM270.201 21.1471C270.661 16.0729 273.958 12.9364 278.883 12.9364C281.302 12.9364 283.347 13.7071 284.792 15.1844C286.226 16.6403 286.997 18.6957 287.018 21.1578H270.201V21.1471Z" fill="#221D1E" stroke="#221D1E" stroke-width="0.334611" stroke-miterlimit="10"/>
<path d="M301.567 11.7695C295.358 11.7695 291.504 15.8481 291.504 22.3996C291.504 28.662 295.893 33.0296 302.177 33.0296C305.153 33.0296 308.011 31.7772 309.638 29.7646L309.842 29.5077L309.071 28.7369L308.814 29.0367C307.294 30.7816 304.757 31.8628 302.177 31.8628C296.428 31.8628 292.821 28.2231 292.671 22.3246H310.644V21.9607C310.644 21.7894 310.655 21.6288 310.666 21.479C310.677 21.3077 310.687 21.1364 310.687 20.9437C310.698 15.5377 306.951 11.7695 301.567 11.7695ZM292.714 21.1471C293.163 16.0729 296.471 12.9364 301.395 12.9364C303.815 12.9364 305.859 13.7071 307.304 15.1844C308.739 16.6403 309.499 18.6957 309.531 21.1578H292.714V21.1471Z" fill="#221D1E" stroke="#221D1E" stroke-width="0.334611" stroke-miterlimit="10"/>
<path d="M323.885 11.7676C321.124 11.7676 318.137 12.9344 316.274 14.69V12.1208H315.097V41.4953H316.274V31.1757C318.126 32.3747 320.61 33.0384 323.35 33.0384C329.452 33.0384 333.723 28.5423 333.723 22.0979C333.723 15.8141 329.859 11.7676 323.885 11.7676ZM323.404 31.8608C320.663 31.8608 318.319 31.1543 316.285 29.6984V16.3493C317.57 14.6579 320.717 12.9344 323.896 12.9344C329.238 12.9344 332.567 16.4885 332.567 22.2156C332.557 27.8893 328.788 31.8608 323.404 31.8608Z" fill="#221D1E" stroke="#221D1E" stroke-width="0.334611" stroke-miterlimit="10"/>
<path fill-rule="evenodd" clip-rule="evenodd" d="M115.463 14.8088C117.368 13.0104 120.408 11.7579 123.074 11.7579C129.047 11.7579 132.912 15.8151 132.912 22.0882C132.912 28.6289 128.566 33.0287 122.1 33.0287C118.92 33.0287 116.405 32.1937 114.414 30.4702L114.285 30.3631V1.0957H115.463V14.8088ZM115.463 29.8279C118.032 31.6049 120.28 31.8511 122.143 31.8511C127.795 31.8511 131.745 27.8903 131.734 22.2166C131.734 16.4895 128.416 12.9354 123.074 12.9354C120.002 12.9354 116.769 14.7553 115.463 16.4788V29.8279ZM135.706 22.386C135.706 15.8238 139.56 11.7559 145.769 11.7559C151.143 11.7559 154.9 15.5348 154.9 20.9301C154.9 21.1228 154.89 21.2941 154.879 21.4654L154.877 21.4922L154.877 21.4924C154.867 21.6429 154.858 21.7855 154.858 21.9471V22.3111H136.895C137.034 28.2095 140.652 31.8492 146.39 31.8492C148.959 31.8492 151.507 30.768 153.027 29.0231L153.284 28.7234L154.055 29.4941L153.851 29.751C152.224 31.7636 149.355 33.0161 146.379 33.0161C140.095 33.0161 135.706 28.6484 135.706 22.386ZM145.587 12.9335C140.663 12.9335 137.366 16.0701 136.905 21.1442V21.1549H153.723C153.701 18.6928 152.931 16.6374 151.496 15.1815C150.051 13.7043 148.006 12.9335 145.587 12.9335ZM165.208 11.7559C163.035 11.7559 161.205 12.3126 159.107 13.6186L158.796 13.8113L159.396 14.7748L159.706 14.5928C161.547 13.4902 162.885 12.9335 165.112 12.9335C170.871 12.9335 171.332 16.0808 171.353 22.1077C169.234 20.8552 166.718 20.6518 165.337 20.6518C160.541 20.6518 157.437 23.1246 157.437 26.9677C157.437 30.479 160.07 32.8448 163.977 32.8448C167.05 32.8448 169.48 31.785 171.364 29.6119V32.6735H172.541V19.881C172.541 14.3358 170.208 11.7559 165.208 11.7559ZM165.262 21.8293C167.628 21.8293 169.683 22.4074 171.375 23.5528V27.7385C169.951 29.6975 167.949 31.6779 163.945 31.6779C160.766 31.6779 158.625 29.7724 158.625 26.9356C158.614 23.403 161.954 21.8293 165.262 21.8293ZM186.232 31.8509C189.658 31.8509 192.902 29.5386 194.101 27.9115V12.1109H195.278V32.6645H194.101V29.5707C192.249 31.3799 189.144 33.0177 186.136 33.0177C180.452 33.0177 177.797 30.0203 177.797 23.5759V12.1109H178.975V23.4475C178.975 29.2603 181.212 31.8509 186.232 31.8509ZM209.803 30.6936C209.15 31.1861 207.962 31.6785 206.763 31.6785C202.974 31.6785 201.357 29.4947 201.357 24.3777V13.2873H210.392V12.1098H201.357V6.60742H200.18V24.7738C200.18 30.2119 202.331 32.8453 206.753 32.8453C208.08 32.8453 209.472 32.4064 210.489 31.6785L210.778 31.4751L210.103 30.4581L209.803 30.6936ZM229.825 12.1113H231.109L222.738 32.4508C219.966 39.2056 218.039 41.4858 215.084 41.4858C214.163 41.4858 213.189 41.261 212.119 40.79L211.776 40.6401L212.258 39.5803L212.59 39.7195C213.607 40.1584 214.345 40.3511 214.998 40.3511C217.332 40.3511 219.066 38.3492 221.186 33.2216L221.561 32.3223L211.188 12.1113H212.494L222.149 30.9842L229.825 12.1113Z" fill="#221D1E"/>
<path d="M115.463 14.8088H115.295V15.1968L115.578 14.9305L115.463 14.8088ZM114.414 30.4702L114.523 30.3437L114.521 30.3417L114.414 30.4702ZM114.285 30.3631H114.118V30.4415L114.178 30.4917L114.285 30.3631ZM114.285 1.0957V0.928398H114.118V1.0957H114.285ZM115.463 1.0957H115.63V0.928398H115.463V1.0957ZM115.463 29.8279H115.295V29.9156L115.368 29.9655L115.463 29.8279ZM131.734 22.2166H131.567V22.217L131.734 22.2166ZM115.463 16.4788L115.329 16.3777L115.295 16.4225V16.4788H115.463ZM154.879 21.4654L155.046 21.4765L155.046 21.4758L154.879 21.4654ZM154.877 21.4922L154.71 21.4811L154.71 21.4821L154.877 21.4922ZM154.877 21.4924L155.044 21.5036L155.044 21.5026L154.877 21.4924ZM154.858 22.3111V22.4784H155.025V22.3111H154.858ZM136.895 22.3111V22.1438H136.723L136.727 22.315L136.895 22.3111ZM153.027 29.0231L153.153 29.133L153.154 29.132L153.027 29.0231ZM153.284 28.7234L153.402 28.605L153.274 28.4773L153.157 28.6145L153.284 28.7234ZM154.055 29.4941L154.186 29.598L154.278 29.4812L154.173 29.3758L154.055 29.4941ZM153.851 29.751L153.981 29.8562L153.982 29.8549L153.851 29.751ZM136.905 21.1442L136.739 21.1291L136.738 21.1366V21.1442H136.905ZM136.905 21.1549H136.738V21.3222H136.905V21.1549ZM153.723 21.1549V21.3222H153.892L153.89 21.1535L153.723 21.1549ZM151.496 15.1815L151.377 15.2985L151.377 15.299L151.496 15.1815ZM159.107 13.6186L159.195 13.7608L159.195 13.7607L159.107 13.6186ZM158.796 13.8113L158.708 13.6692L158.566 13.7575L158.654 13.8997L158.796 13.8113ZM159.396 14.7748L159.254 14.8631L159.34 15.0015L159.48 14.9191L159.396 14.7748ZM159.706 14.5928L159.791 14.7371L159.792 14.7363L159.706 14.5928ZM171.353 22.1077L171.268 22.2517L171.521 22.4015L171.52 22.1071L171.353 22.1077ZM171.364 29.6119H171.531V29.1635L171.237 29.5023L171.364 29.6119ZM171.364 32.6735H171.197V32.8408H171.364V32.6735ZM172.541 32.6735V32.8408H172.709V32.6735H172.541ZM171.375 23.5528H171.542V23.4641L171.468 23.4143L171.375 23.5528ZM171.375 27.7385L171.51 27.8369L171.542 27.7929V27.7385H171.375ZM158.625 26.9356H158.792V26.9351L158.625 26.9356ZM194.101 27.9115L194.235 28.0107L194.268 27.9664V27.9115H194.101ZM194.101 12.1109V11.9436H193.933V12.1109H194.101ZM195.278 12.1109H195.446V11.9436H195.278V12.1109ZM195.278 32.6645V32.8318H195.446V32.6645H195.278ZM194.101 32.6645H193.933V32.8318H194.101V32.6645ZM194.101 29.5707H194.268V29.1734L193.984 29.4511L194.101 29.5707ZM177.797 12.1109V11.9436H177.63V12.1109H177.797ZM178.975 12.1109H179.142V11.9436H178.975V12.1109ZM209.803 30.6936L209.904 30.8272L209.907 30.8252L209.803 30.6936ZM201.357 13.2873V13.12H201.19V13.2873H201.357ZM210.392 13.2873V13.4546H210.56V13.2873H210.392ZM210.392 12.1098H210.56V11.9425H210.392V12.1098ZM201.357 12.1098H201.19V12.2771H201.357V12.1098ZM201.357 6.60742H201.525V6.44012H201.357V6.60742ZM200.18 6.60742V6.44012H200.012V6.60742H200.18ZM210.489 31.6785L210.392 31.5417L210.391 31.5425L210.489 31.6785ZM210.778 31.4751L210.874 31.6119L211.007 31.5183L210.917 31.3826L210.778 31.4751ZM210.103 30.4581L210.243 30.3657L210.142 30.2145L210 30.3266L210.103 30.4581ZM231.109 12.1113L231.264 12.175L231.359 11.944H231.109V12.1113ZM229.825 12.1113V11.944H229.712L229.67 12.0483L229.825 12.1113ZM222.738 32.4508L222.583 32.3871L222.583 32.3873L222.738 32.4508ZM212.119 40.79L212.186 40.6368L212.186 40.6367L212.119 40.79ZM211.776 40.6401L211.624 40.5709L211.554 40.7254L211.709 40.7934L211.776 40.6401ZM212.258 39.5803L212.323 39.426L212.173 39.3632L212.106 39.5111L212.258 39.5803ZM212.59 39.7195L212.656 39.5659L212.655 39.5652L212.59 39.7195ZM221.186 33.2216L221.032 33.1572L221.031 33.1576L221.186 33.2216ZM221.561 32.3223L221.715 32.3867L221.745 32.315L221.709 32.2459L221.561 32.3223ZM211.188 12.1113V11.944H210.914L211.039 12.1877L211.188 12.1113ZM212.494 12.1113L212.642 12.0351L212.596 11.944H212.494V12.1113ZM222.149 30.9842L222 31.0604L222.167 31.3855L222.304 31.0472L222.149 30.9842ZM123.074 11.5906C120.364 11.5906 117.283 12.8603 115.348 14.6871L115.578 14.9305C117.453 13.1604 120.452 11.9252 123.074 11.9252V11.5906ZM133.079 22.0882C133.079 18.9172 132.102 16.2905 130.354 14.4552C128.605 12.6192 126.1 11.5906 123.074 11.5906V11.9252C126.021 11.9252 128.435 12.9252 130.112 14.686C131.79 16.4476 132.745 18.986 132.745 22.0882H133.079ZM122.1 33.196C125.372 33.196 128.119 32.082 130.05 30.1288C131.979 28.1758 133.079 25.3963 133.079 22.0882H132.745C132.745 25.3208 131.671 28.0116 129.811 29.8936C127.952 31.7755 125.294 32.8614 122.1 32.8614V33.196ZM114.304 30.5967C116.332 32.3518 118.889 33.196 122.1 33.196V32.8614C118.952 32.8614 116.478 32.0356 114.523 30.3437L114.304 30.5967ZM114.178 30.4917L114.307 30.5987L114.521 30.3417L114.392 30.2346L114.178 30.4917ZM114.118 1.0957V30.3631H114.452V1.0957H114.118ZM115.463 0.928398H114.285V1.26301H115.463V0.928398ZM115.63 14.8088V1.0957H115.295V14.8088H115.63ZM122.143 31.6838C120.3 31.6838 118.09 31.4415 115.558 29.6903L115.368 29.9655C117.974 31.7684 120.26 32.0184 122.143 32.0184V31.6838ZM131.567 22.217C131.572 25.0139 130.602 27.3785 128.944 29.0434C127.285 30.7084 124.929 31.6838 122.143 31.6838V32.0184C125.009 32.0184 127.454 31.0135 129.181 29.2796C130.908 27.5457 131.907 25.0931 131.902 22.2163L131.567 22.217ZM123.074 13.1027C125.706 13.1027 127.824 13.9773 129.285 15.5425C130.747 17.109 131.567 19.3849 131.567 22.2166H131.902C131.902 19.3212 131.062 16.9565 129.53 15.3142C127.996 13.6705 125.783 12.7681 123.074 12.7681V13.1027ZM115.596 16.5798C116.229 15.7444 117.341 14.8733 118.68 14.2107C120.018 13.549 121.569 13.1027 123.074 13.1027V12.7681C121.506 12.7681 119.905 13.2318 118.532 13.9108C117.16 14.5891 116.002 15.4897 115.329 16.3777L115.596 16.5798ZM115.63 29.8279V16.4788H115.295V29.8279H115.63ZM145.769 11.5886C142.627 11.5886 140.064 12.619 138.288 14.4951C136.512 16.3702 135.539 19.0725 135.539 22.386H135.874C135.874 19.1373 136.827 16.5246 138.531 14.7252C140.233 12.9269 142.702 11.9233 145.769 11.9233V11.5886ZM155.068 20.9301C155.068 18.1927 154.114 15.8553 152.468 14.2018C150.823 12.5482 148.496 11.5886 145.769 11.5886V11.9233C148.416 11.9233 150.654 12.8531 152.231 14.4378C153.808 16.0226 154.733 18.2723 154.733 20.9301H155.068ZM155.046 21.4758C155.057 21.3049 155.068 21.1287 155.068 20.9301H154.733C154.733 21.1169 154.723 21.2832 154.712 21.4549L155.046 21.4758ZM155.044 21.5034L155.046 21.4765L154.712 21.4542L154.71 21.4811L155.044 21.5034ZM155.044 21.5026L155.044 21.5024L154.71 21.4821L154.71 21.4823L155.044 21.5026ZM155.025 21.9471C155.025 21.7918 155.034 21.6546 155.044 21.5036L154.71 21.4813C154.7 21.6313 154.69 21.7791 154.69 21.9471H155.025ZM155.025 22.3111V21.9471H154.69V22.3111H155.025ZM136.895 22.4784H154.858V22.1438H136.895V22.4784ZM146.39 31.6819C143.557 31.6819 141.264 30.7843 139.661 29.174C138.058 27.5633 137.131 25.2229 137.062 22.3071L136.727 22.315C136.798 25.2977 137.749 27.7264 139.424 29.4101C141.1 31.0943 143.485 32.0165 146.39 32.0165V31.6819ZM152.901 28.9132C151.416 30.6172 148.917 31.6819 146.39 31.6819V32.0165C149.001 32.0165 151.597 30.9188 153.153 29.133L152.901 28.9132ZM153.157 28.6145L152.9 28.9142L153.154 29.132L153.411 28.8322L153.157 28.6145ZM154.173 29.3758L153.402 28.605L153.166 28.8417L153.936 29.6124L154.173 29.3758ZM153.982 29.8549L154.186 29.598L153.923 29.3903L153.72 29.6472L153.982 29.8549ZM146.379 33.1834C149.397 33.1834 152.317 31.9143 153.981 29.8562L153.721 29.6458C152.131 31.6129 149.313 32.8487 146.379 32.8487V33.1834ZM135.539 22.386C135.539 25.5574 136.651 28.259 138.568 30.168C140.485 32.077 143.198 33.1834 146.379 33.1834V32.8487C143.277 32.8487 140.653 31.7713 138.804 29.9309C136.956 28.0905 135.874 25.477 135.874 22.386H135.539ZM137.072 21.1593C137.299 18.6552 138.224 16.6431 139.687 15.2575C141.149 13.8725 143.162 13.1008 145.587 13.1008V12.7662C143.088 12.7662 140.99 13.5628 139.457 15.0146C137.925 16.4658 136.972 18.5591 136.739 21.1291L137.072 21.1593ZM137.073 21.1549V21.1442H136.738V21.1549H137.073ZM153.723 20.9876H136.905V21.3222H153.723V20.9876ZM151.377 15.299C152.775 16.718 153.534 18.7286 153.555 21.1564L153.89 21.1535C153.868 18.6569 153.086 16.5568 151.615 15.0641L151.377 15.299ZM145.587 13.1008C147.97 13.1008 149.969 13.8593 151.377 15.2985L151.616 15.0645C150.133 13.5492 148.042 12.7662 145.587 12.7662V13.1008ZM159.195 13.7607C161.27 12.4689 163.071 11.9233 165.208 11.9233V11.5886C163 11.5886 161.139 12.1563 159.018 13.4766L159.195 13.7607ZM158.884 13.9535L159.195 13.7608L159.018 13.4765L158.708 13.6692L158.884 13.9535ZM159.538 14.6864L158.938 13.7229L158.654 13.8997L159.254 14.8631L159.538 14.6864ZM159.621 14.4484L159.311 14.6304L159.48 14.9191L159.791 14.7371L159.621 14.4484ZM165.112 12.7662C162.845 12.7662 161.477 13.3372 159.62 14.4492L159.792 14.7363C161.618 13.6431 162.926 13.1008 165.112 13.1008V12.7662ZM171.52 22.1071C171.515 20.5998 171.482 19.2647 171.345 18.1118C171.208 16.9594 170.965 15.9772 170.531 15.1806C170.096 14.3796 169.471 13.7719 168.583 13.3672C167.7 12.9644 166.565 12.7662 165.112 12.7662V13.1008C166.539 13.1008 167.621 13.296 168.445 13.6716C169.264 14.0454 169.835 14.6012 170.237 15.3404C170.642 16.084 170.878 17.0187 171.013 18.1514C171.148 19.2837 171.18 20.6021 171.186 22.1083L171.52 22.1071ZM165.337 20.8191C166.708 20.8191 169.187 21.022 171.268 22.2517L171.438 21.9636C169.28 20.6883 166.728 20.4845 165.337 20.4845V20.8191ZM157.604 26.9677C157.604 25.0956 158.358 23.5653 159.693 22.4993C161.031 21.4304 162.966 20.8191 165.337 20.8191V20.4845C162.912 20.4845 160.897 21.1096 159.484 22.2379C158.067 23.3691 157.269 24.9968 157.269 26.9677H157.604ZM163.977 32.6775C162.057 32.6775 160.464 32.0964 159.354 31.0985C158.244 30.102 157.604 28.6791 157.604 26.9677H157.269C157.269 28.7676 157.946 30.2832 159.13 31.3474C160.313 32.4102 161.99 33.0121 163.977 33.0121V32.6775ZM171.237 29.5023C169.388 31.6358 167.005 32.6775 163.977 32.6775V33.0121C167.094 33.0121 169.572 31.9341 171.49 29.7215L171.237 29.5023ZM171.531 32.6735V29.6119H171.197V32.6735H171.531ZM172.541 32.5062H171.364V32.8408H172.541V32.5062ZM172.374 19.881V32.6735H172.709V19.881H172.374ZM165.208 11.9233C167.681 11.9233 169.46 12.5607 170.625 13.8512C171.794 15.1452 172.374 17.1275 172.374 19.881H172.709C172.709 17.0894 172.122 15.0091 170.874 13.6269C169.622 12.2411 167.735 11.5886 165.208 11.5886V11.9233ZM171.468 23.4143C169.745 22.2472 167.656 21.662 165.262 21.662V21.9966C167.6 21.9966 169.621 22.5676 171.281 23.6914L171.468 23.4143ZM171.542 27.7385V23.5528H171.207V27.7385H171.542ZM163.945 31.8452C165.977 31.8452 167.509 31.3422 168.716 30.5845C169.921 29.8283 170.792 28.8242 171.51 27.8369L171.239 27.6401C170.533 28.6118 169.691 29.5774 168.538 30.3011C167.388 31.0235 165.917 31.5106 163.945 31.5106V31.8452ZM158.458 26.9356C158.458 28.3987 159.011 29.6308 159.982 30.4955C160.95 31.3587 162.323 31.8452 163.945 31.8452V31.5106C162.389 31.5106 161.101 31.0444 160.204 30.2457C159.309 29.4484 158.792 28.3094 158.792 26.9356H158.458ZM165.262 21.662C163.585 21.662 161.888 22.0604 160.606 22.9187C159.318 23.7813 158.452 25.1077 158.458 26.9361L158.792 26.9351C158.787 25.2309 159.586 24.0041 160.792 23.1968C162.004 22.3851 163.631 21.9966 165.262 21.9966V21.662ZM193.966 27.8122C193.383 28.603 192.292 29.5732 190.92 30.3456C189.548 31.1173 187.909 31.6836 186.232 31.6836V32.0182C187.982 32.0182 189.677 31.4284 191.084 30.6372C192.489 29.8466 193.619 28.8471 194.235 28.0107L193.966 27.8122ZM193.933 12.1109V27.9115H194.268V12.1109H193.933ZM195.278 11.9436H194.101V12.2782H195.278V11.9436ZM195.446 32.6645V12.1109H195.111V32.6645H195.446ZM194.101 32.8318H195.278V32.4972H194.101V32.8318ZM193.933 29.5707V32.6645H194.268V29.5707H193.933ZM186.136 33.185C189.198 33.185 192.342 31.5223 194.218 29.6904L193.984 29.4511C192.155 31.2374 189.091 32.8504 186.136 32.8504V33.185ZM177.63 23.5759C177.63 26.8165 178.296 29.2254 179.71 30.8243C181.127 32.4276 183.266 33.185 186.136 33.185V32.8504C183.322 32.8504 181.292 32.1092 179.96 30.6027C178.625 29.0918 177.964 26.7798 177.964 23.5759H177.63ZM177.63 12.1109V23.5759H177.964V12.1109H177.63ZM178.975 11.9436H177.797V12.2782H178.975V11.9436ZM179.142 23.4475V12.1109H178.807V23.4475H179.142ZM186.232 31.6836C183.75 31.6836 181.991 31.0436 180.847 29.7196C179.699 28.3901 179.142 26.3379 179.142 23.4475H178.807C178.807 26.3698 179.369 28.5194 180.594 29.9384C181.825 31.3629 183.695 32.0182 186.232 32.0182V31.6836ZM206.763 31.8458C208.002 31.8458 209.225 31.3397 209.904 30.8272L209.703 30.5601C209.076 31.0325 207.923 31.5112 206.763 31.5112V31.8458ZM201.19 24.3777C201.19 26.9467 201.594 28.8169 202.505 30.0465C203.424 31.2882 204.835 31.8458 206.763 31.8458V31.5112C204.902 31.5112 203.61 30.9769 202.774 29.8474C201.928 28.7059 201.525 26.9257 201.525 24.3777H201.19ZM201.19 13.2873V24.3777H201.525V13.2873H201.19ZM210.392 13.12H201.357V13.4546H210.392V13.12ZM210.225 12.1098V13.2873H210.56V12.1098H210.225ZM201.357 12.2771H210.392V11.9425H201.357V12.2771ZM201.19 6.60742V12.1098H201.525V6.60742H201.19ZM200.18 6.77473H201.357V6.44012H200.18V6.77473ZM200.347 24.7738V6.60742H200.012V24.7738H200.347ZM206.753 32.678C204.576 32.678 202.988 32.0315 201.938 30.7432C200.882 29.448 200.347 27.4755 200.347 24.7738H200.012C200.012 27.5102 200.553 29.5735 201.678 30.9546C202.81 32.3425 204.508 33.0126 206.753 33.0126V32.678ZM210.391 31.5425C209.404 32.2491 208.047 32.678 206.753 32.678V33.0126C208.113 33.0126 209.539 32.5638 210.586 31.8145L210.391 31.5425ZM210.681 31.3383L210.392 31.5417L210.585 31.8153L210.874 31.6119L210.681 31.3383ZM209.964 30.5506L210.638 31.5676L210.917 31.3826L210.243 30.3657L209.964 30.5506ZM209.907 30.8252L210.207 30.5897L210 30.3266L209.7 30.5621L209.907 30.8252ZM231.109 11.944H229.825V12.2786H231.109V11.944ZM222.893 32.5145L231.264 12.175L230.955 12.0477L222.583 32.3871L222.893 32.5145ZM215.084 41.6531C216.618 41.6531 217.882 41.0558 219.107 39.6095C220.323 38.1735 221.506 35.8934 222.893 32.5143L222.583 32.3873C221.198 35.763 220.031 38.0004 218.852 39.3933C217.681 40.7757 216.505 41.3185 215.084 41.3185V41.6531ZM212.051 40.9431C213.138 41.4213 214.135 41.6531 215.084 41.6531V41.3185C214.191 41.3185 213.24 41.1007 212.186 40.6368L212.051 40.9431ZM211.709 40.7934L212.052 40.9433L212.186 40.6367L211.843 40.4868L211.709 40.7934ZM212.106 39.5111L211.624 40.5709L211.929 40.7094L212.41 39.6496L212.106 39.5111ZM212.655 39.5652L212.323 39.426L212.193 39.7346L212.525 39.8738L212.655 39.5652ZM214.998 40.1838C214.379 40.1838 213.665 40.0011 212.656 39.5659L212.524 39.8731C213.549 40.3157 214.312 40.5184 214.998 40.5184V40.1838ZM221.031 33.1576C219.973 35.7176 219.018 37.4793 218.046 38.5996C217.08 39.713 216.106 40.1838 214.998 40.1838V40.5184C216.224 40.5184 217.284 39.9883 218.299 38.8188C219.307 37.6563 220.279 35.8532 221.341 33.2855L221.031 33.1576ZM221.406 32.258L221.032 33.1572L221.34 33.2859L221.715 32.3867L221.406 32.258ZM211.039 12.1877L221.412 32.3987L221.709 32.2459L211.336 12.0349L211.039 12.1877ZM212.494 11.944H211.188V12.2786H212.494V11.944ZM222.298 30.908L212.642 12.0351L212.345 12.1875L222 31.0604L222.298 30.908ZM229.67 12.0483L221.994 30.9212L222.304 31.0472L229.98 12.1744L229.67 12.0483Z" fill="#221D1E"/>
<path d="M250.069 21.7466C247.275 20.8367 244.642 19.9803 244.642 16.8116C244.642 14.6064 246.74 12.9471 249.513 12.9471C251.504 12.9471 253.206 13.5787 254.319 14.7241L254.598 15.0131L255.379 14.1139L255.165 13.8784C254.052 12.6152 251.814 11.7695 249.609 11.7695C245.937 11.7695 243.475 13.8142 243.475 16.8544C243.475 20.8581 246.762 21.9286 249.652 22.8706C252.435 23.7698 254.844 24.5513 254.844 27.4309C254.844 30.4926 252.039 31.8735 249.266 31.8735C247.457 31.8735 244.984 31.0385 243.968 29.6469L243.764 29.3578L242.769 30.0215L242.972 30.3213C244.021 31.927 247.158 33.0403 249.309 33.0403C253.388 33.0403 256.021 30.8244 256.021 27.3881C256 23.6735 252.981 22.6886 250.069 21.7466Z" fill="#221D1E" stroke="#221D1E" stroke-width="0.334611" stroke-miterlimit="10"/>
<path d="M267.612 30.6522C266.959 31.1446 265.76 31.637 264.572 31.637C262.238 31.637 261.371 30.3096 261.371 26.7556V1.0957H260.193V27.4193C260.193 31.1018 261.585 32.8039 264.572 32.8039C265.899 32.8039 267.291 32.365 268.308 31.637L268.597 31.4336L267.922 30.4274L267.612 30.6522Z" fill="#221D1E" stroke="#221D1E" stroke-width="0.334611" stroke-miterlimit="10"/>
<path d="M279.065 11.7695C272.856 11.7695 269.002 15.8481 269.002 22.3996C269.002 28.662 273.391 33.0296 279.675 33.0296C282.651 33.0296 285.52 31.7772 287.147 29.7646L287.35 29.5077L286.58 28.7369L286.323 29.0367C284.803 30.7816 282.255 31.8628 279.686 31.8628C273.937 31.8628 270.329 28.2231 270.19 22.3246H288.164V21.9607C288.164 21.7894 288.175 21.6288 288.185 21.479C288.196 21.3077 288.207 21.1364 288.207 20.9437C288.196 15.5377 284.439 11.7695 279.065 11.7695ZM270.201 21.1471C270.661 16.0729 273.958 12.9364 278.883 12.9364C281.302 12.9364 283.347 13.7071 284.792 15.1844C286.226 16.6403 286.997 18.6957 287.018 21.1578H270.201V21.1471Z" fill="#221D1E" stroke="#221D1E" stroke-width="0.334611" stroke-miterlimit="10"/>
<path d="M301.567 11.7695C295.358 11.7695 291.504 15.8481 291.504 22.3996C291.504 28.662 295.893 33.0296 302.177 33.0296C305.153 33.0296 308.011 31.7772 309.638 29.7646L309.842 29.5077L309.071 28.7369L308.814 29.0367C307.294 30.7816 304.757 31.8628 302.177 31.8628C296.428 31.8628 292.821 28.2231 292.671 22.3246H310.644V21.9607C310.644 21.7894 310.655 21.6288 310.666 21.479C310.677 21.3077 310.687 21.1364 310.687 20.9437C310.698 15.5377 306.951 11.7695 301.567 11.7695ZM292.714 21.1471C293.163 16.0729 296.471 12.9364 301.395 12.9364C303.815 12.9364 305.859 13.7071 307.304 15.1844C308.739 16.6403 309.499 18.6957 309.531 21.1578H292.714V21.1471Z" fill="#221D1E" stroke="#221D1E" stroke-width="0.334611" stroke-miterlimit="10"/>
<path d="M323.885 11.7676C321.124 11.7676 318.137 12.9344 316.274 14.69V12.1208H315.097V41.4953H316.274V31.1757C318.126 32.3747 320.61 33.0384 323.35 33.0384C329.452 33.0384 333.723 28.5423 333.723 22.0979C333.723 15.8141 329.859 11.7676 323.885 11.7676ZM323.404 31.8608C320.663 31.8608 318.319 31.1543 316.285 29.6984V16.3493C317.57 14.6579 320.717 12.9344 323.896 12.9344C329.238 12.9344 332.567 16.4885 332.567 22.2156C332.557 27.8893 328.788 31.8608 323.404 31.8608Z" fill="#221D1E" stroke="#221D1E" stroke-width="0.334611" stroke-miterlimit="10"/>
<path fill-rule="evenodd" clip-rule="evenodd" d="M88.1563 20.9191C88.1563 15.4314 91.8951 10.8169 96.9645 9.48398C96.0015 9.23063 94.9905 9.0957 93.948 9.0957C87.4183 9.0957 82.125 14.389 82.125 20.9187C82.125 27.4483 87.4183 32.7417 93.948 32.7417C94.9899 32.7417 96.0003 32.6069 96.9628 32.3538C91.8943 31.0204 88.1563 26.4063 88.1563 20.9191ZM12.5925 32.7418C19.1222 32.7418 24.4155 27.4485 24.4155 20.9189C24.4155 14.3892 19.1222 9.09587 12.5925 9.09587C6.06286 9.09587 0.769531 14.3892 0.769531 20.9189C0.769531 27.4485 6.06286 32.7418 12.5925 32.7418ZM46.3703 9.71042C50.0553 11.285 52.7093 15.7082 52.7093 20.9187C52.7093 26.1291 50.0553 30.5524 46.3703 32.127C45.9557 32.5256 45.1695 32.7417 43.8503 32.7417C37.3207 32.7417 32.0273 27.4483 32.0273 20.9187C32.0273 15.1129 36.2121 10.2845 41.7299 9.28533C41.7578 9.27891 41.7857 9.27266 41.8137 9.26656C42.3675 9.1704 42.9345 9.11277 43.5119 9.09655C43.5407 9.09698 43.5694 9.09758 43.5982 9.09834C43.682 9.09658 43.7661 9.0957 43.8503 9.0957C45.1695 9.0957 45.9557 9.31176 46.3703 9.71042ZM61.2188 20.9148C61.2188 14.4879 66.3468 9.25871 72.7344 9.0957V32.7338C66.3468 32.5708 61.2188 27.3417 61.2188 20.9148Z" fill="url(#paint0_linear)"/>
<defs>
<linearGradient id="paint0_linear" x1="100.505" y1="13.2077" x2="7.06829" y2="49.0356" gradientUnits="userSpaceOnUse">
<stop stop-color="#FFD6D6"/>
<stop offset="1" stop-color="#8FA6C1"/>
</linearGradient>
</defs>
</svg>
