<svg width="230" height="150" viewBox="0 0 230 150" fill="none" xmlns="http://www.w3.org/2000/svg">
<g style="mix-blend-mode:multiply">
<path d="M198.327 55.0206C193.64 53.0671 188.416 43.2997 186.366 38.6601C184.315 33.9718 183.29 23.3252 180.751 18.881C177.138 12.581 164.982 2.17868 157.805 1.05542C140.913 -1.63063 120.017 18.0996 95.5091 20.395C76.7129 22.202 42.1474 21.7136 27.7451 27.6229C10.0229 34.8997 3.8226 52.1881 1.72328 62.1997C0.795677 66.6439 1.43035 71.2346 3.52967 75.2393C3.52967 75.2393 16.9555 103.077 36.4841 139.265C38.7299 143.416 45.1255 152.305 53.8157 147.812C87.2583 130.474 113.427 119.388 134.615 113.625C149.066 109.718 178.505 103.663 193.445 102.393C200.817 101.758 216.733 103.614 222.494 98.9742C227.864 94.6765 230.598 80.8556 228.352 75.1416C225.765 68.6462 215.17 57.609 208.579 55.2648C206.187 54.4346 200.719 55.9974 198.327 55.0206Z" fill="white" stroke="#DEDEDE" stroke-width="1.16808" stroke-miterlimit="10"/>
<path d="M34.0915 106.153L17.9316 74.8971C17.9316 74.8971 19.5427 58.2436 33.7009 51.9924C58.7463 40.9063 77.9819 51.6506 79.7395 66.3017C80.2765 70.7948 80.0324 80.4157 72.4163 82.5157C48.9332 88.9622 40.2918 100.683 36.4838 106.299C35.8491 107.179 34.5797 107.13 34.0915 106.153Z" stroke="#DEDEDE" stroke-width="0.775773" stroke-miterlimit="10"/>
<path d="M53.6699 57.2676L69.0975 83.249" stroke="#DEDEDE" stroke-opacity="0.36" stroke-width="0.775773" stroke-miterlimit="10"/>
<path d="M48.0059 70.3086L58.6977 87.7923" stroke="#DEDEDE" stroke-opacity="0.36" stroke-width="0.775773" stroke-miterlimit="10"/>
<path d="M115.233 78.5108C132.166 78.5108 145.893 67.9499 145.893 54.9224C145.893 41.8949 132.166 31.334 115.233 31.334C98.3001 31.334 84.5732 41.8949 84.5732 54.9224C84.5732 67.9499 98.3001 78.5108 115.233 78.5108Z" stroke="#DEDEDE" stroke-opacity="0.38" stroke-width="0.775773" stroke-miterlimit="10"/>
<path d="M17.9316 74.9462C24.7666 69.9648 39.5107 68.6462 48.0056 70.2089C48.4938 70.3066 49.9585 58.5857 54.2547 56.095C58.6975 53.5066 70.4634 50.088 77.3961 59.2206" stroke="#DEDEDE" stroke-opacity="0.47" stroke-width="0.775773" stroke-miterlimit="10"/>
<path d="M46.1004 148.544C38.6796 147.372 47.5651 118.509 63.432 106.934C75.0515 98.4366 112.253 95.311 131.684 91.404C155.265 86.6668 190.172 66.9854 210.335 67.4738C215.657 67.6203 228.204 70.9901 229.132 80.6598" stroke="#DEDEDE" stroke-opacity="0.32" stroke-width="0.775773" stroke-miterlimit="10"/>
<path d="M182.703 24.302C182.703 24.302 176.747 22.0555 170.595 22.1043C162.345 22.1043 142.621 31.3834 152.19 47.9881C160.05 61.5648 199.107 55.3137 199.107 55.3137" stroke="#DEDEDE" stroke-width="0.775773" stroke-miterlimit="10"/>
<path d="M149.75 41.0533C150.238 33.6789 159.71 32.1649 160.832 33.4347C164.103 37.1952 177.09 56.6812 177.09 56.6812" stroke="#DEDEDE" stroke-opacity="0.44" stroke-width="0.775773" stroke-miterlimit="10"/>
<path d="M186.267 37.1948C186.267 37.1948 168.594 33.7762 164.151 37.8785" stroke="#DEDEDE" stroke-opacity="0.44" stroke-width="0.775773" stroke-miterlimit="10"/>
<g opacity="0.23">
<g style="mix-blend-mode:multiply">
<path d="M210.338 67.3119C190.174 66.8742 155.315 86.474 131.686 91.143C112.254 95.0338 75.0518 98.0977 63.4322 106.609C48.3949 117.6 39.607 144.009 45.075 147.657C47.6138 148.775 50.5431 149.018 53.8142 147.316C87.2574 130.051 113.426 119.011 134.615 113.272C149.066 109.381 178.506 103.35 193.446 102.086C200.818 101.454 216.734 103.302 222.495 98.6814C226.498 95.4715 229.086 86.9117 229.135 80.4433C228.207 70.8136 215.66 67.4578 210.338 67.3119Z" fill="#DEDEDE"/>
<path d="M210.338 67.3119C190.174 66.8742 155.315 86.474 131.686 91.143C112.254 95.0338 75.0518 98.0977 63.4322 106.609C48.3949 117.6 39.607 144.009 45.075 147.657C47.6138 148.775 50.5431 149.018 53.8142 147.316C87.2574 130.051 113.426 119.011 134.615 113.272C149.066 109.381 178.506 103.35 193.446 102.086C200.818 101.454 216.734 103.302 222.495 98.6814C226.498 95.4715 229.086 86.9117 229.135 80.4433C228.207 70.8136 215.66 67.4578 210.338 67.3119Z" fill="url(#paint0_linear)"/>
</g>
<g style="mix-blend-mode:multiply">
<path d="M34.0847 105.651L17.9248 74.3951C17.9248 74.3951 19.5359 57.7416 33.6941 51.4905C58.7395 40.4044 77.9751 51.1486 79.7327 65.7998C80.2697 70.2928 80.0256 79.9138 72.4094 82.0138C48.9264 88.4603 40.285 100.181 36.4769 105.798C35.8422 106.677 34.5729 106.628 34.0847 105.651Z" fill="#DEDEDE"/>
<path d="M34.0847 105.651L17.9248 74.3951C17.9248 74.3951 19.5359 57.7416 33.6941 51.4905C58.7395 40.4044 77.9751 51.1486 79.7327 65.7998C80.2697 70.2928 80.0256 79.9138 72.4094 82.0138C48.9264 88.4603 40.285 100.181 36.4769 105.798C35.8422 106.677 34.5729 106.628 34.0847 105.651Z" fill="url(#paint1_linear)"/>
</g>
<g style="mix-blend-mode:multiply">
<path d="M115.225 78.0089C132.158 78.0089 145.885 67.448 145.885 54.4205C145.885 41.3929 132.158 30.832 115.225 30.832C98.2923 30.832 84.5654 41.3929 84.5654 54.4205C84.5654 67.448 98.2923 78.0089 115.225 78.0089Z" fill="#DEDEDE"/>
<path d="M115.225 78.0089C132.158 78.0089 145.885 67.448 145.885 54.4205C145.885 41.3929 132.158 30.832 115.225 30.832C98.2923 30.832 84.5654 41.3929 84.5654 54.4205C84.5654 67.448 98.2923 78.0089 115.225 78.0089Z" fill="url(#paint2_linear)"/>
</g>
<g style="mix-blend-mode:multiply">
<path fill-rule="evenodd" clip-rule="evenodd" d="M170.591 21.532C176.742 21.4832 182.698 23.7297 182.698 23.7297L183.386 25.0296L185.251 34.4709L189.852 45.4503L195.122 47.2169L199.102 54.7414C199.102 54.7414 160.045 60.9926 152.185 47.4158C142.616 30.8111 162.34 21.532 170.591 21.532Z" fill="#DEDEDE"/>
<path fill-rule="evenodd" clip-rule="evenodd" d="M170.591 21.532C176.742 21.4832 182.698 23.7297 182.698 23.7297L183.386 25.0296L185.251 34.4709L189.852 45.4503L195.122 47.2169L199.102 54.7414C199.102 54.7414 160.045 60.9926 152.185 47.4158C142.616 30.8111 162.34 21.532 170.591 21.532Z" fill="url(#paint3_linear)"/>
</g>
</g>
<g style="mix-blend-mode:multiply" opacity="0.45">
<path d="M48.0041 69.6655C48.4902 69.7612 49.9484 58.2821 54.2257 55.8428C58.6489 53.3078 70.3631 49.9597 77.2652 58.9038C71.0922 48.5727 54.4202 42.9288 33.7624 51.8729C19.6665 57.9951 18.0625 74.3528 18.0625 74.3528C24.8674 69.4742 39.5466 68.1828 48.0041 69.6655Z" fill="#D8D9DD"/>
<path d="M48.0041 69.6655C48.4902 69.7612 49.9484 58.2821 54.2257 55.8428C58.6489 53.3078 70.3631 49.9597 77.2652 58.9038C71.0922 48.5727 54.4202 42.9288 33.7624 51.8729C19.6665 57.9951 18.0625 74.3528 18.0625 74.3528C24.8674 69.4742 39.5466 68.1828 48.0041 69.6655Z" fill="url(#paint4_linear)"/>
</g>
<g style="mix-blend-mode:multiply" opacity="0.45">
<path d="M163.788 37.3747L160.201 32.8516C159.908 32.5772 158.327 33.0422 157.888 33.1337L154.845 34.0095C153.14 35.1386 150.174 38.1926 150.028 38.3298C149.052 39.1989 151.177 33.6749 151.762 32.4857C152.884 30.1529 154.43 28.8004 154.528 28.7547C157.473 25.1586 163.859 23.109 165.713 22.2399C165.908 22.1485 170.444 21.4707 170.688 21.4707L178.166 22.4849C178.424 21.9522 178.263 22.4849 178.166 22.4849L182.395 23.8678C182.834 24.0051 183.224 25.1216 183.322 25.5332L184.98 35.1386C185.175 36.1449 183.956 36.8767 183.029 36.3278L182.395 35.8704C182.2 35.7332 181.956 35.6875 181.712 35.6875L170.688 35.5045H170.639L169.013 36.3278C168.721 36.3278 167.908 35.4588 167.664 35.6417L166.005 36.8767C165.469 37.1969 164.276 37.7864 163.788 37.3747Z" fill="#D8D9DD"/>
<path d="M163.788 37.3747L160.201 32.8516C159.908 32.5772 158.327 33.0422 157.888 33.1337L154.845 34.0095C153.14 35.1386 150.174 38.1926 150.028 38.3298C149.052 39.1989 151.177 33.6749 151.762 32.4857C152.884 30.1529 154.43 28.8004 154.528 28.7547C157.473 25.1586 163.859 23.109 165.713 22.2399C165.908 22.1485 170.444 21.4707 170.688 21.4707L178.166 22.4849C178.424 21.9522 178.263 22.4849 178.166 22.4849L182.395 23.8678C182.834 24.0051 183.224 25.1216 183.322 25.5332L184.98 35.1386C185.175 36.1449 183.956 36.8767 183.029 36.3278L182.395 35.8704C182.2 35.7332 181.956 35.6875 181.712 35.6875L170.688 35.5045H170.639L169.013 36.3278C168.721 36.3278 167.908 35.4588 167.664 35.6417L166.005 36.8767C165.469 37.1969 164.276 37.7864 163.788 37.3747Z" fill="url(#paint5_linear)"/>
</g>
</g>
<defs>
<linearGradient id="paint0_linear" x1="144.847" y1="137.429" x2="104.018" y2="46.3278" gradientUnits="userSpaceOnUse">
<stop stop-color="white"/>
<stop offset="1" stop-color="white" stop-opacity="0"/>
</linearGradient>
<linearGradient id="paint1_linear" x1="51.7741" y1="98.2802" x2="11.7134" y2="57.5458" gradientUnits="userSpaceOnUse">
<stop stop-color="white"/>
<stop offset="1" stop-color="white" stop-opacity="0"/>
</linearGradient>
<linearGradient id="paint2_linear" x1="118.052" y1="71.5539" x2="87.1665" y2="32.3664" gradientUnits="userSpaceOnUse">
<stop stop-color="white"/>
<stop offset="1" stop-color="white" stop-opacity="0"/>
</linearGradient>
<linearGradient id="paint3_linear" x1="176.643" y1="51.4375" x2="154.546" y2="20.6323" gradientUnits="userSpaceOnUse">
<stop stop-color="white"/>
<stop offset="1" stop-color="white" stop-opacity="0"/>
</linearGradient>
<linearGradient id="paint4_linear" x1="50.3928" y1="70.6674" x2="36.5048" y2="40.8691" gradientUnits="userSpaceOnUse">
<stop stop-color="white"/>
<stop offset="1" stop-color="white" stop-opacity="0"/>
</linearGradient>
<linearGradient id="paint5_linear" x1="169.857" y1="35.0367" x2="162.195" y2="18.3837" gradientUnits="userSpaceOnUse">
<stop stop-color="white"/>
<stop offset="1" stop-color="white" stop-opacity="0"/>
</linearGradient>
</defs>
</svg>
